<svg id="avatar-solid-user" xmlns="http://www.w3.org/2000/svg" xmlns:xlink="http://www.w3.org/1999/xlink" width="31" height="29.5" viewBox="0 0 31 29.5">
  <defs>
    <clipPath id="clip-path">
      <path id="Mask" d="M1.292,24.583A1.262,1.262,0,0,1,0,23.371V18.454a1.205,1.205,0,0,1,.336-.819A15.134,15.134,0,0,1,11.194,13.11a15.134,15.134,0,0,1,10.859,4.525,1.209,1.209,0,0,1,.336.8v4.917A1.261,1.261,0,0,1,21.1,24.583ZM5.167,5.736A5.887,5.887,0,0,1,11.194,0a5.887,5.887,0,0,1,6.028,5.736,5.888,5.888,0,0,1-6.028,5.736A5.888,5.888,0,0,1,5.167,5.736Z" fill="#e2de72"/>
    </clipPath>
  </defs>
  <g id="mask-2" data-name="mask" transform="translate(4.306 2.458)">
    <path id="Mask-3" data-name="Mask" d="M1.292,24.583A1.262,1.262,0,0,1,0,23.371V18.454a1.205,1.205,0,0,1,.336-.819A15.134,15.134,0,0,1,11.194,13.11a15.134,15.134,0,0,1,10.859,4.525,1.209,1.209,0,0,1,.336.8v4.917A1.261,1.261,0,0,1,21.1,24.583ZM5.167,5.736A5.887,5.887,0,0,1,11.194,0a5.887,5.887,0,0,1,6.028,5.736,5.888,5.888,0,0,1-6.028,5.736A5.888,5.888,0,0,1,5.167,5.736Z" fill="#e2de72"/>
    <g id="mask-4" data-name="mask" clip-path="url(#clip-path)">
      <g id="color" transform="translate(-4.306 -2.458)">
        <rect id="Rectangle" width="31" height="29.5" fill="#e2de72"/>
      </g>
    </g>
  </g>
</svg>
