<svg xmlns="http://www.w3.org/2000/svg" xmlns:xlink="http://www.w3.org/1999/xlink" viewBox="0 0 578 634.51"><defs><style>.cls-1{fill:#e2e2e2;}.cls-2,.cls-21{fill:#fff;}.cls-3{fill:#ebecff;}.cls-4{fill:#fc7575;}.cls-5{fill:#170f33;}.cls-6{fill:#fd5e5a;}.cls-7{fill:#1a1361;}.cls-8{fill:#d9d7f4;}.cls-9{fill:#f7d364;}.cls-10{fill:#1f0140;}.cls-11{fill:#2d015c;}.cls-12{fill:#c2d6ff;}.cls-13{fill:#e24b4b;}.cls-14{fill:#fff7cf;}.cls-15{fill:url(#linear-gradient);}.cls-16{fill:url(#linear-gradient-2);}.cls-17{fill:#6f2a6b;}.cls-18{fill:#381950;}.cls-19{fill:#535c78;}.cls-20{fill:#ec8399;}.cls-21{opacity:0.37;}.cls-22{fill:#2d1e66;}.cls-23{fill:url(#linear-gradient-3);}.cls-24{fill:url(#linear-gradient-4);}.cls-25{fill:url(#linear-gradient-5);}.cls-26{fill:#4f447b;}.cls-27{fill:#fecdc6;}.cls-28{fill:#478ffc;}.cls-29{fill:#60d3f1;}.cls-30{fill:#4291a6;}.cls-31{fill:url(#Untitled_Gradient_5);}.cls-32{fill:#a30f4d;}.cls-33{fill:#ffe696;}</style><linearGradient id="linear-gradient" x1="120.36" y1="314.37" x2="311.41" y2="223.02" gradientUnits="userSpaceOnUse"><stop offset="0" stop-color="#cd1171"/><stop offset="0.73" stop-color="#54326b"/><stop offset="1" stop-color="#3c3e69"/></linearGradient><linearGradient id="linear-gradient-2" x1="128.19" y1="330.74" x2="319.23" y2="239.39" xlink:href="#linear-gradient"/><linearGradient id="linear-gradient-3" x1="220.84" y1="603.48" x2="203.47" y2="332.11" gradientUnits="userSpaceOnUse"><stop offset="0" stop-color="#931171"/><stop offset="1" stop-color="#3c3e69"/></linearGradient><linearGradient id="linear-gradient-4" x1="241.61" y1="602.15" x2="224.24" y2="330.78" xlink:href="#linear-gradient-3"/><linearGradient id="linear-gradient-5" x1="677.77" y1="345.89" x2="-530.65" y2="313.38" gradientUnits="userSpaceOnUse"><stop offset="0" stop-color="#931171"/><stop offset="0.73" stop-color="#54326b"/><stop offset="1" stop-color="#3c3e69"/></linearGradient><linearGradient id="Untitled_Gradient_5" x1="316.93" y1="300.8" x2="411.83" y2="300.8" gradientUnits="userSpaceOnUse"><stop offset="0" stop-color="#e21f71"/><stop offset="1" stop-color="#f63385"/></linearGradient></defs><title>Asset 1</title><g id="Layer_2" data-name="Layer 2"><g id="Layer_1-2" data-name="Layer 1"><path class="cls-1" d="M272.56,8.05c-75.9,16.76-157.7,49.77-168.4,137.11-4.66,38-2.4,78-18.22,112.86C62.47,309.76-31.5,345.56,38.32,416.36c31.05,31.47,70.09,53.81,109.84,73.17,84.13,41,228,91.43,301.57,33.87,55.13-43.11,58.12-127.94,58.12-191.6,0-49.06,18-96.62,43.19-138.12C583.62,140,595.32,94.53,536,55.56,459.3,5.1,361.87-11.67,272.56,8.05Z"/><path class="cls-2" d="M170.6,250a.65.65,0,0,0-.65-.65H89.48c-.16.44-.32.87-.49,1.31h42.1V286a.65.65,0,0,0,.65.65.66.66,0,0,0,.66-.65V250.65H170A.66.66,0,0,0,170.6,250Z"/><path class="cls-2" d="M319.72,146.61H262.23a.64.64,0,0,0,.15-.42V110.85h37.56a.66.66,0,0,0,0-1.31h-73V71.1H264.5a.65.65,0,1,0,0-1.3H158a.65.65,0,1,0,0,1.3h67.69v38.44H193.38a.66.66,0,0,0,0,1.31h67.69v35.34a.69.69,0,0,0,.15.42H213.17a.65.65,0,1,0,0,1.3h67.69v35.35a.65.65,0,0,0,.65.65.66.66,0,0,0,.66-.65V147.91h37.55a.65.65,0,1,0,0-1.3Z"/><path class="cls-2" d="M479.82,462.87H373.27a.65.65,0,0,0-.65.65.66.66,0,0,0,.65.66H441v35.34a.66.66,0,0,0,1.31,0V464.18h37.55a.66.66,0,0,0,.66-.66A.65.65,0,0,0,479.82,462.87Z"/><path class="cls-2" d="M190.91,331.64H84.35a.65.65,0,0,0-.65.65.66.66,0,0,0,.65.66H152v35.34a.66.66,0,0,0,.66.65.65.65,0,0,0,.65-.65V333h37.56a.66.66,0,0,0,.65-.66A.65.65,0,0,0,190.91,331.64Z"/><path class="cls-2" d="M210.57,391.78H104a.65.65,0,0,0-.65.65.66.66,0,0,0,.65.66h67.7v35.34a.65.65,0,1,0,1.3,0V393.09h37.56a.66.66,0,0,0,.65-.66A.65.65,0,0,0,210.57,391.78Z"/><path class="cls-2" d="M302.1,287.55H195.54a.66.66,0,0,0-.65.66.65.65,0,0,0,.65.65h67.69V324.2a.66.66,0,0,0,.66.66.65.65,0,0,0,.65-.66V288.86H302.1a.65.65,0,0,0,.65-.65A.66.66,0,0,0,302.1,287.55Z"/><path class="cls-3" d="M536,55.56C476.44,16.38,404.37-2.49,333.31.27V442.72h164.4c9.28-36.6,10.14-76.8,10.14-110.92,0-49.06,18-96.62,43.19-138.12C583.62,140,595.32,94.53,536,55.56Z"/><path class="cls-1" d="M464.11,20q-7-2.46-14.05-4.63v98.57H333.31V123l116.75.64V442.72h14.05V123.66H577.92a69.88,69.88,0,0,0-.22-9.72H464.11Z"/><path class="cls-4" d="M328.26,252.48a8.77,8.77,0,0,0-.48-2.68h0c-3.61-13.26-51.36-72.21-51.36-72.21l-19.91,28,46.21,45.56a74.21,74.21,0,0,0-5.75,6.48c-5.95,7.65-11.55,14.77-19.6,20.18s-31.81,7-33.5,8.35,5.91,16.32,8.24,16.26S307.75,276.6,312.45,273,328.44,260.58,328.26,252.48Z"/><path class="cls-5" d="M241.31,80.66S252.12,85,257.37,90.5,265,106.84,264,115.43s-3.3,10.16-3.3,10.16,5,12,3.46,22.34S251.36,168.08,244,169.49c0,0,10.19-12.19,8.85-18.59,0,0-7.35,10.46-14.7,14.53s-42.9,39.73-65.9,14.24c0,0,18.79-8.46,12.64-25.34s10.81-32.18,10.81-32.18-13.21,7.34-20.11-2.5,5-17.5,5.55-16.87-4.65,9.53,1.5,11.87,7.58-7.11,17.26-17.18S236.66,75.82,241.31,80.66Z"/><path class="cls-6" d="M176.53,472.6s-5,80.53,18.32,137.4l11.07,1.53L204,470.31Z"/><path class="cls-6" d="M254,472.21s1.53,88.56-21.38,131.69H219.28s6.87-107.64,3.43-125.58S254,472.21,254,472.21Z"/><path class="cls-7" d="M197.46,284S159.16,335,140.27,386,126,478.13,126,478.13L289,485.48c22-29.42-17.13-162.85-45.14-199.36Z"/><path class="cls-8" d="M243.89,286.12c26.35,37.22,66.25,169,45.14,199.36C312.11,455.26,273.3,323.75,243.89,286.12Z"/><path class="cls-9" d="M187.52,167s-5.46,38.66.27,55.83S197.46,284,197.46,284l45.86,4s14.31-48.66,20-59.54S257.23,167,257.23,167Z"/><path class="cls-10" d="M216,599.23c5.41-9.87,19.63-9.63,25.54,0a23.77,23.77,0,0,1,3.47,8.09c1.36,8.42,1.9,20.38,1.9,20.38H210.23s4.39-14.17,4.39-23.53A10.31,10.31,0,0,1,216,599.23Z"/><path class="cls-11" d="M249.39,628.44h-41c-2.2,0,.62-13,2.11-14.16,3-2.44,28.51-8.92,36.58,4.61C247.53,619.68,250.36,628.44,249.39,628.44Z"/><path class="cls-12" d="M222.53,602.61s-5.46-7.58-5.46-14.55,17.46-3.9,19.58-1.78-3.4,11.29-4.74,15.57C230.84,605.28,222.53,604.88,222.53,602.61Z"/><path class="cls-2" d="M224.21,604.7a45.7,45.7,0,0,1-7.29-.59.91.91,0,1,1,.31-1.79c.13,0,13.38,2.28,18.14-2.47a.91.91,0,0,1,1.29,1.28C233.78,604,228.56,604.7,224.21,604.7Z"/><path class="cls-2" d="M228.43,609.35a81.31,81.31,0,0,1-10.89-.84.91.91,0,0,1-.76-1,.93.93,0,0,1,1-.76c4.12.63,15.57,1.74,19-.59a.91.91,0,1,1,1,1.5C235.88,609,232.16,609.35,228.43,609.35Z"/><path class="cls-10" d="M182.59,599.23c5.4-9.87,19.63-9.63,25.53,0a23.77,23.77,0,0,1,3.47,8.09c1.36,8.42,1.9,20.38,1.9,20.38H176.81s4.38-14.17,4.38-23.53A10.21,10.21,0,0,1,182.59,599.23Z"/><path class="cls-11" d="M216,628.44H175c-2.21,0,.62-13,2.1-14.16,3-2.44,28.51-8.92,36.58,4.61C214.1,619.68,216.93,628.44,216,628.44Z"/><path class="cls-12" d="M189.1,602.61s-5.45-7.58-5.45-14.55,17.45-3.9,19.58-1.78-3.41,11.29-4.74,15.57C197.42,605.28,189.1,604.88,189.1,602.61Z"/><path class="cls-2" d="M190.79,604.7a45.75,45.75,0,0,1-7.3-.59.91.91,0,1,1,.32-1.79c.13,0,13.38,2.28,18.14-2.47a.91.91,0,0,1,1.28,1.28C200.35,604,195.14,604.7,190.79,604.7Z"/><path class="cls-2" d="M195,609.35a81.12,81.12,0,0,1-10.89-.84.92.92,0,0,1-.77-1,.93.93,0,0,1,1-.76c4.13.63,15.57,1.74,19-.59a.91.91,0,1,1,1,1.5C202.45,609,198.73,609.35,195,609.35Z"/><path class="cls-13" d="M231.87,486.72s2.74,7.76,7.31,6.39,10-4.12,7.74-6.39S231.87,486.72,231.87,486.72Z"/><path class="cls-13" d="M183.21,485.12s2.74,7.76,7.31,6.39,10-4.12,7.74-6.39S183.21,485.12,183.21,485.12Z"/><path class="cls-14" d="M150.73,302.2a2.44,2.44,0,0,1-2.38-3.24c1.52-4.54,6.24-5.56,10.48-5.69l21.17-.65a2.94,2.94,0,0,0,2.85-2.85,2.85,2.85,0,0,0-2.89-2.83l-26.83.51a13.31,13.31,0,0,0-12.52,9.49,43.56,43.56,0,0,0-1.51,7.83c-1.41,13.36-.46,21.21-.46,21.21l70.18-2.14h0c-.4-12.92-27.53-21.44-40.44-21Z"/><path class="cls-15" d="M161.22,289.6c-4.23.13-8.95,1.15-10.48,5.69a3,3,0,0,0-.08.32c2.17-1.75,5.28-2.25,8.17-2.34l21.17-.65a2.94,2.94,0,0,0,2.85-2.85,2.84,2.84,0,0,0-.13-.84l-.32,0Z"/><path class="cls-16" d="M208,320.27l-67,2s-.95-7.85.46-21.21a44.36,44.36,0,0,1,1.5-7.83,14,14,0,0,1,.56-1.53,13.15,13.15,0,0,0-2.95,5.2,43.56,43.56,0,0,0-1.51,7.83c-1.41,13.36-.46,21.21-.46,21.21l70.18-2.14A9.82,9.82,0,0,0,208,320.27Z"/><path class="cls-17" d="M212.76,328.43l-74.11,2.26-.11-3.5L209.15,325a3.51,3.51,0,0,1,3.61,3.39Z"/><rect class="cls-18" x="140.69" y="324.93" width="64.56" height="1.21" transform="translate(-9.83 5.42) rotate(-1.74)"/><path class="cls-19" d="M158.93,312.46a6.68,6.68,0,1,1-6.88-6.47A6.67,6.67,0,0,1,158.93,312.46Z"/><path class="cls-20" d="M156,312.55a3.77,3.77,0,1,1-3.89-3.65A3.77,3.77,0,0,1,156,312.55Z"/><path class="cls-21" d="M164.61,306a76.67,76.67,0,0,1,13.72.22c8.67.93,16.46,6,23.33,11.05a58,58,0,0,0-17.72-8.16c-6.71-1.63-13.57-1.53-20.44-1.42C163.67,307.4,164.36,306,164.61,306Z"/><path class="cls-9" d="M301.09,232.45c-20.56,8.68-36.17-3.65-36.17,1.78s-4.44,50.93-21.6,53.82-45.11,0-49.14-4c-11-11-10.11-54.1-15-54.1s-16.54,14.4-16.54,14.4a107.43,107.43,0,0,1-11.22-6.58c-5.58-3.73-12-8.81-16.27-14.56-3.87-5.21-5.95-11-4-16.89,0,0,41.12-37.17,57.57-39.31s45.23-2,68.54,0,59.39,42.16,59.39,42.16S321.65,223.77,301.09,232.45Z"/><path class="cls-14" d="M274.82,172.7c-5.45-2.9-11.35-5.5-17.59-5.71,18.42,2.88,45.07,28.4,59.39,42.16C312.74,204.34,290,180.92,274.82,172.7Z"/><path class="cls-4" d="M175.63,296.75c-.3.54-3.51-.21-5,.49s-3.33-.24-4.68.22-7-1.28-7-2.61,1-5-2.8-6.38c-.43-.17-1.73-.62-3.71-1.32,0,.06-42.74-24.12-42.58-32.22,0-.42,11.9-15.2,25.31-31.74,4.26,5.75,10.69,10.83,16.27,14.56l-16.05,15.81a75.94,75.94,0,0,1,5.76,6.47c2.25,2.91,17.51,15.86,18.27,16.36,4.1,2.56,16.91,5.86,17.37,9.41S179.15,289.69,175.63,296.75Z"/><path class="cls-4" d="M238.31,170l5.75-37.68-20.28-1.44-3.28,33.85C224.67,168.66,230.64,173.93,238.31,170Z"/><path class="cls-6" d="M241.61,148.33l2.45-16.05h0l-20.28-1.44-1.64,16.93C227.86,149.85,235.73,151,241.61,148.33Z"/><path class="cls-4" d="M246.87,89.5s7.93,2.83,7.93,13.62c0,0-.87,24.71-10.74,37.06-7.23,9-16.89,2.24-20.92-1.79-5.88-5.88-4.21-13.88-4.21-24.67S236,81.83,246.87,89.5Z"/><path class="cls-22" d="M233.83,115.64a2.07,2.07,0,1,1-2.06-2.26A2.16,2.16,0,0,1,233.83,115.64Z"/><path class="cls-22" d="M250.46,117.7a2.07,2.07,0,1,1-2.06-2.25A2.16,2.16,0,0,1,250.46,117.7Z"/><path class="cls-22" d="M226,115s3.91-2.56,6.81-1.84,3.28,2.48,3.28,2.48a7.66,7.66,0,0,0-5.5-1.3C227.46,114.84,226,115,226,115Z"/><path class="cls-22" d="M254.72,118.9s-3.13-3.47-6.12-3.5-3.8,1.56-3.8,1.56a7.67,7.67,0,0,1,5.65.14C253.36,118.39,254.72,118.9,254.72,118.9Z"/><path class="cls-22" d="M242.25,120.38a37,37,0,0,0,1.7,6.25,12.27,12.27,0,0,1-3.62,1.48c3.37.13,4.31-1.21,4.47-1.26A48.32,48.32,0,0,0,242.25,120.38Z"/><path class="cls-6" d="M234.17,123.28c0,1.74-2.26,3.15-5.06,3.15s-5.05-1.41-5.05-3.15,2.26-3.16,5.05-3.16S234.17,121.54,234.17,123.28Z"/><path class="cls-6" d="M251.17,121.59c-2.12,0-3.83,1.33-3.83,3,0,1.46,1.36,2.67,3.15,2.92.64-1.93,1.18-3.88,1.64-5.79A5,5,0,0,0,251.17,121.59Z"/><path class="cls-22" d="M252.72,86.71s1.34,15.42-11.79,16.39a42.53,42.53,0,0,0-21.48,7.49l-5.85,17.53s-2.83-13.53-2.44-23.45S225.71,81,235.1,79.7,252.72,86.71,252.72,86.71Z"/><path class="cls-4" d="M221.25,113s-.93-3.27-3.81-2.56-1.46,9.2,0,10.66S224.09,121.37,221.25,113Z"/><path class="cls-6" d="M220.5,114.58s-1.71-4-3.06-2.66.27,7.23,1.45,7.23S220.5,114.58,220.5,114.58Z"/><path class="cls-22" d="M233.21,132.75c-.34-.26-.23-.35-.49,0-.71,1,.53,4.16,2.63,4.84,2.74.87,6.64-1.05,6.64-2.63C242,134.45,238.43,136.43,233.21,132.75Z"/><path class="cls-22" d="M227.41,109.85s4.83-1.73,6.76-1.73,4.58,2.22,4.08,3.52-2.82-2.17-4.42-2.17S227.41,109.85,227.41,109.85Z"/><path class="cls-22" d="M252.72,114.07s-1.15-2.81-3-3.37-5,.79-4.92,2.19,3.33-1.26,4.85-.8A9.15,9.15,0,0,1,252.72,114.07Z"/><path class="cls-4" d="M202,165.44c-1.33,12.94,7.34,34.05,20.46,42.91,15.22,10.29,31.48-20.33,35.88-41C241.47,160.3,213.83,163,202,165.44Z"/><path class="cls-22" d="M247.34,92.57S223.6,106.75,221.25,113,210.69,128,216.14,148s-15.3,28.51-22.79,22.24-6-19.57,0-18.59c0,0,2.86,6.07,7.52,1.41s.59-21.72-.21-32.68S227.41,65.34,247.34,92.57Z"/><polygon class="cls-23" points="109.85 634.51 309.75 334.98 316.93 339.77 120.23 634.51 109.85 634.51"/><polygon class="cls-24" points="142.19 338.61 333.47 630.05 323.14 630.05 134.98 343.35 142.19 338.61"/><path class="cls-25" d="M21.62,325.78H409v14.76H0A23.22,23.22,0,0,1,21.62,325.78Z"/><path class="cls-26" d="M382.75,340.54V349H24.63A26,26,0,0,1,26,340.54Z"/><path class="cls-27" d="M21.62,325.78H409V331H6.93A23.15,23.15,0,0,1,21.62,325.78Z"/><polygon class="cls-28" points="73.34 325.78 57.56 490.67 220.94 466.04 252.13 325.78 73.34 325.78"/><path class="cls-29" d="M317.76,325.78h84.6a6.62,6.62,0,0,0,6.62-6.62v-2.1a6.62,6.62,0,0,0-6.62-6.62H317.57a6.62,6.62,0,0,0-6.59,7.2l.19,2.1A6.61,6.61,0,0,0,317.76,325.78Z"/><path class="cls-30" d="M320.09,320.29H400c3.45,0,6.25-.84,6.25-1.88v-.6c0-1-2.8-1.88-6.25-1.88H319.92c-3.67,0-6.55.94-6.23,2l.18.6C314.15,319.55,316.85,320.29,320.09,320.29Z"/><rect class="cls-31" x="316.93" y="291.17" width="94.9" height="19.27" rx="7.62"/><path class="cls-32" d="M396.79,302.38H332a1.58,1.58,0,0,1-1.58-1.58h0a1.58,1.58,0,0,1,1.58-1.58h64.81a1.58,1.58,0,0,1,1.58,1.58h0A1.58,1.58,0,0,1,396.79,302.38Z"/><path class="cls-33" d="M400.88,291.17H318.15a3.34,3.34,0,0,1-3.33-3.33h0a3.33,3.33,0,0,1,3.33-3.33h82.73a3.33,3.33,0,0,1,3.33,3.33h0A3.34,3.34,0,0,1,400.88,291.17Z"/></g></g></svg>