<svg id="layers-line" xmlns="http://www.w3.org/2000/svg" xmlns:xlink="http://www.w3.org/1999/xlink" width="27" height="25.5" viewBox="0 0 27 25.5">
  <defs>
    <clipPath id="clip-path">
      <path id="Mask" d="M12.016,19.836a.78.78,0,0,1-.323-.071L.444,14.744A.692.692,0,0,1,.1,13.808a.769.769,0,0,1,.985-.346L12.016,18.37l10.928-4.88a.786.786,0,0,1,.756.052.694.694,0,0,1,.323.648.713.713,0,0,1-.441.583L12.339,19.787a.793.793,0,0,1-.277.05Zm0-4.186a.79.79,0,0,1-.323-.071l-11.25-5A.711.711,0,0,1,0,10a.694.694,0,0,1,.322-.648A.786.786,0,0,1,1.081,9.3l10.935,4.866,10.928-4.88a.8.8,0,0,1,.755.06.7.7,0,0,1,.323.648.718.718,0,0,1-.433.588L12.339,15.6a.791.791,0,0,1-.28.051Zm-.323-4.257L.444,6.371a.692.692,0,0,1,0-1.282L11.694.067a.793.793,0,0,1,.638,0l11.25,5.022a.692.692,0,0,1,0,1.282l-11.25,5.022a.777.777,0,0,1-.315.071A.79.79,0,0,1,11.694,11.393Z" fill="#e2de72"/>
    </clipPath>
  </defs>
  <g id="color" transform="translate(1.484 2.88)">
    <path id="Mask-2" data-name="Mask" d="M12.016,19.836a.78.78,0,0,1-.323-.071L.444,14.744A.692.692,0,0,1,.1,13.808a.769.769,0,0,1,.985-.346L12.016,18.37l10.928-4.88a.786.786,0,0,1,.756.052.694.694,0,0,1,.323.648.713.713,0,0,1-.441.583L12.339,19.787a.793.793,0,0,1-.277.05Zm0-4.186a.79.79,0,0,1-.323-.071l-11.25-5A.711.711,0,0,1,0,10a.694.694,0,0,1,.322-.648A.786.786,0,0,1,1.081,9.3l10.935,4.866,10.928-4.88a.8.8,0,0,1,.755.06.7.7,0,0,1,.323.648.718.718,0,0,1-.433.588L12.339,15.6a.791.791,0,0,1-.28.051Zm-.323-4.257L.444,6.371a.692.692,0,0,1,0-1.282L11.694.067a.793.793,0,0,1,.638,0l11.25,5.022a.692.692,0,0,1,0,1.282l-11.25,5.022a.777.777,0,0,1-.315.071A.79.79,0,0,1,11.694,11.393Z" fill="#e2de72"/>
    <g id="color-2" data-name="color" clip-path="url(#clip-path)">
      <g id="color-3" data-name="color" transform="translate(-1.484 -2.88)">
        <rect id="Rectangle" width="27" height="25.5" fill="#e2de72"/>
      </g>
    </g>
  </g>
</svg>
