<svg xmlns="http://www.w3.org/2000/svg" xmlns:xlink="http://www.w3.org/1999/xlink" width="517.419" height="478.968" viewBox="0 0 517.419 478.968">
  <defs>
    <linearGradient id="linear-gradient" x1="0.5" x2="0.5" y2="1" gradientUnits="objectBoundingBox">
      <stop offset="0" stop-color="#5C6CD8"/>
      <stop offset="1" stop-color="#5C6CD8"/>
    </linearGradient>
  </defs>
  <path id="Path_1-head-2" data-name="Path 1-head-2" d="M-8.364,902.307S-12.71,693.536,18.613,694.948s21.6,103.157,23.98,121.483,37.169,37.7,28.776-71.214S97.9,661.261,107.939,674.7s-4.736,32.975,0,74.127c2.212,19.217,10.816,28.919,10.816,28.919s22.941,39.7,34.764-49.984c4.836-36.681,6.183-39.7,11.706-55.363,21.284-41.725,43.673-15.65,41.859,14.046-2.32,37.974-19.865,82.625-2.838,112.37s76.7,9.2,53.92-98.323S268.1,579.447,268.1,579.447s25.822-21.13,41.859,15.7S298.606,741.392,328.4,733.129s.795-171.7,33.345-205.322,78.914,72.887,78.914,72.887L422.079,921.856Z" transform="translate(333.109 989.002) rotate(-169)" fill="url(#linear-gradient)"/>
</svg>
