<svg xmlns="http://www.w3.org/2000/svg" xmlns:xlink="http://www.w3.org/1999/xlink" width="429.478" height="334.907" viewBox="0 0 429.478 334.907">
  <defs>
    <linearGradient id="linear-gradient" x1="0.5" x2="0.5" y2="1" gradientUnits="objectBoundingBox">
      <stop offset="0" stop-color="#5C6CD8"/>
      <stop offset="1" stop-color="#5C6CD8"/>
    </linearGradient>
  </defs>
  <path id="Path_1-bottom-1" data-name="Path 1-bottom-1" d="M-8.378,826.1s-4.049-167.021,25.135-165.89S36.884,742.738,39.1,757.4s34.63,30.162,26.811-56.972,24.716-67.166,34.072-56.414-4.412,26.381,0,59.3c2.061,15.374,10.077,23.135,10.077,23.135s21.374,31.76,32.39-39.988c4.505-29.345,5.76-31.758,10.907-44.291,19.83-33.381,40.69-12.52,39,11.237-2.162,30.38-18.508,66.1-2.644,89.9s71.462,7.357,50.237-78.66,9.254-96.838,9.254-96.838,24.058-16.9,39,12.559-10.576,117,17.186,110.389.74-137.365,31.068-164.261,73.524,58.311,73.524,58.311L392.663,841.74Z" transform="matrix(0.999, -0.035, 0.035, 0.999, -9.627, -506.619)" fill="url(#linear-gradient)"/>
</svg>
