<svg xmlns="http://www.w3.org/2000/svg" width="276.658" height="253.308" viewBox="0 0 256.658 283.308">
  <path id="watermark" d="M-10.7,1015.957c15.357-15.6,147.436-34.341,117.819,13.874-5.657,9.209-34.75,3.9-38.446,9.359-7.489,14.846,13.381,19.364,33.5,16.008,11.223-2.026,113.175-26.312,109.718,5.713,1.536,39.473-28.613,8.193-89.607,41.517-4.491,12.355,1.038,27.784,38.631,16.543,47.708-14.265,76.068,8.392,65.557,26.432s-68.486-2.284-81.909,10.3c-3.111,3.988-2.745,6.805-2.826,9.75,6.4,17.378,73.343,2.291,74.225,22.524,5.992,36.792-38.888,23-98.211,25.4-45.382,1.833-97.121,28.87-126.571,55.8-8.728,7.98-11.684,16.363-19.148,11.748-.649-5.454,7.942-246.528,7.942-246.528Z" transform="translate(27.998 -998.929)" fill="#B3C165"/>
</svg>
